PathFileType	4	(X/Y/Z)	C:\Users\Basilio\Documents\Thesis Gigler\squatting_fais\c3dfiles\038\SLS_front_pre3\markers_experimental.trc
DataRate	CameraRate	NumFrames	NumMarkers	Units	OrigDataRate	OrigDataStartFrame	OrigNumFrames
200.000000	200.000000	4	61	mm	200.000000	0	1368
Frame#	Time	FHD			LBHD			RBHD			C7			T10			CLAV			LSHO			LUUPA			LMUPA			LDUPA			LLEP			LMEP			LUL			LRFIN			RSHO			RUPA1			RMUPA			RDUPA			RLEP			RMEP			RRAD			RUL			RUFIN			LASI			RASI			USACR			LSACR			RSACR			LTHI1			LTHI2			LTHI3			LTHI4			LLFC			LMFC			LTIB1			LTIB2			LTIB3			LTIB4			LLMAL			LMMAL			LHEE			LMT1			LMT2			LMT5			RTHI			RTHI2			RTHI3			RTHI4			RLFC			RMFC			RTIB1			RTIB2			RTIB3			RTIB4			RLMAL			RMMAL			RHEE			RMT1			RMT2			RMT5			LRAD			
		X1	Y1	Z1	X2	Y2	Z2	X3	Y3	Z3	X4	Y4	Z4	X5	Y5	Z5	X6	Y6	Z6	X7	Y7	Z7	X8	Y8	Z8	X9	Y9	Z9	X10	Y10	Z10	X11	Y11	Z11	X12	Y12	Z12	X13	Y13	Z13	X14	Y14	Z14	X15	Y15	Z15	X16	Y16	Z16	X17	Y17	Z17	X18	Y18	Z18	X19	Y19	Z19	X20	Y20	Z20	X21	Y21	Z21	X22	Y22	Z22	X23	Y23	Z23	X24	Y24	Z24	X25	Y25	Z25	X26	Y26	Z26	X27	Y27	Z27	X28	Y28	Z28	X29	Y29	Z29	X30	Y30	Z30	X31	Y31	Z31	X32	Y32	Z32	X33	Y33	Z33	X34	Y34	Z34	X35	Y35	Z35	X36	Y36	Z36	X37	Y37	Z37	X38	Y38	Z38	X39	Y39	Z39	X40	Y40	Z40	X41	Y41	Z41	X42	Y42	Z42	X43	Y43	Z43	X44	Y44	Z44	X45	Y45	Z45	X46	Y46	Z46	X47	Y47	Z47	X48	Y48	Z48	X49	Y49	Z49	X50	Y50	Z50	X51	Y51	Z51	X52	Y52	Z52	X53	Y53	Z53	X54	Y54	Z54	X55	Y55	Z55	X56	Y56	Z56	X57	Y57	Z57	X58	Y58	Z58	X59	Y59	Z59	X60	Y60	Z60	X61	Y61	Z61	

1	0	-222.5974884033204	1774.876953125	-997.594665527344	-378.1482238769532	1719.391723632813	-1056.5341796875	-368.2778320312501	1707.374633789063	-911.7316894531252	-416.5457153320314	1530.02392578125	-979.8499145507815	-370.7626647949219	1251.794067382813	-973.625915527344	-272.9193725585938	1525.804443359375	-993.6262817382815	-344.0754699707032	1553.251342773438	-1135.225219726563	-179.900634765625	1492.455078125	-1266.055419921875	-152.654541015625	1527.585693359375	-1240.984130859375	-111.2841262817383	1500.985595703125	-1275.2529296875	-49.8921356201172	1504.830078125	-1276.468872070313	-39.28718566894532	1430.973754882813	-1252.166137695313	246.0337829589844	1517.243041992188	-1253.920532226563	311.7586059570313	1534.475708007813	-1165.715454101563	-319.5748901367188	1545.787353515625	-845.257751464844	-159.603988647461	1507.244506835938	-729.6254272460939	-124.5139389038086	1521.506225585938	-760.0913696289064	-91.74439239501955	1502.157348632813	-712.7043457031251	-18.33617973327637	1500.816528320313	-703.3123779296876	-12.60741996765137	1423.714721679688	-724.1030273437501	256.9755554199219	1497.117797851563	-788.860778808594	268.3620910644532	1512.231079101563	-720.1601562500001	338.0050964355469	1529.346313476563	-795.8054809570315	-189.9222259521485	1073.86865234375	-1091.2734375	-196.7014923095704	1086.697998046875	-837.140075683594	-363.5574035644532	1122.8173828125	-971.204284667969	-375.6499328613282	1093.917846679688	-998.4088134765627	-378.5431518554688	1095.190307617188	-943.3486328125002	-247.9315948486329	749.8425903320314	-1136.918579101563	-224.2998504638672	668.8482666015626	-1127.867919921875	-177.4464111328125	669.9389648437501	-1107.1337890625	-256.2092285156251	622.0502929687501	-1109.43212890625	-256.8109130859376	559.2456665039064	-1101.716674804688	-246.4718627929688	549.5177001953126	-981.7473754882815	-241.9707794189454	367.3439331054688	-1034.234497070313	-287.3427124023438	330.2507019042969	-1101.720581054688	-253.2513580322266	321.9164428710938	-1072.210693359375	-273.0979919433594	243.7296295166016	-1046.541015625	-366.4282226562501	117.5383911132813	-1069.877563476563	-327.7395324707032	128.5059967041016	-999.523132324219	-416.7170715332032	94.92555999755861	-1016.206298828125	-216.0223693847657	46.6144142150879	-1017.371276855469	-210.0980224609376	46.8220329284668	-1068.355346679688	-256.4442138671876	34.18248748779298	-1112.662963867188	-269.4721374511719	816.568786621094	-782.0357055664065	-240.7622528076172	755.7406005859376	-773.6169433593752	-207.5607910156251	754.0682983398439	-774.8328857421877	-277.2962646484376	680.5770874023439	-791.2424926757815	-279.8960266113282	542.6322021484376	-793.7888183593752	-274.2229919433594	537.6147460937501	-914.8944091796877	-244.9619293212891	364.4272155761719	-813.1631469726565	-324.7374572753907	289.5527038574219	-775.2973632812502	-278.6504821777344	289.9162597656251	-784.6964111328127	-270.6549682617188	237.8515625000001	-812.2539062500002	-340.7884521484376	118.0818481445313	-781.918395996094	-309.0836181640626	124.972770690918	-859.8991699218752	-400.6417236328126	84.99525451660158	-844.096374511719	-186.0804748535157	49.29044342041017	-835.0200195312502	-188.7417755126953	47.22588729858399	-788.1499023437502	-233.7591705322266	33.47929763793946	-744.4392089843751	nan	nan	nan	
2	0.005	-222.7637634277344	1774.789306640625	-998.0610351562502	-378.2497558593751	1719.459594726563	-1057.227294921875	-368.3853149414063	1707.3876953125	-912.3945922851565	-416.6914978027345	1530.044067382813	-980.587097167969	-370.9278869628907	1251.812744140625	-974.226257324219	-272.8985900878907	1525.8662109375	-994.4741210937502	-344.2839965820313	1553.296630859375	-1135.9560546875	-180.15576171875	1492.41357421875	-1266.741821289063	-152.7998199462891	1527.557739257813	-1241.623657226563	-111.3718643188477	1500.948486328125	-1276.00537109375	-50.03517150878908	1504.7265625	-1277.075073242188	-39.42429733276368	1430.958740234375	-1252.809692382813	245.9227447509766	1517.139770507813	-1254.467529296875	311.6665649414063	1534.4306640625	-1166.360229492188	-319.8362731933594	1545.835815429688	-846.0218505859377	-159.8223419189453	1507.266845703125	-730.3306274414064	-124.668197631836	1521.537963867188	-760.8436889648439	-91.95862579345705	1502.216796875	-713.3414916992189	-18.48998451232911	1500.775756835938	-703.8971557617189	-12.81384086608887	1423.6875	-724.7454223632814	256.8239746093751	1497.07568359375	-789.350036621094	268.1737976074219	1511.728881835938	-720.9088134765626	337.8677368164063	1529.296875	-796.385925292969	-190.0559844970703	1073.818969726563	-1091.792602539063	-196.817611694336	1086.764892578125	-837.8198852539065	-363.4743957519532	1123.309936523438	-971.8281250000002	-375.7228088378907	1093.922607421875	-998.986511230469	-378.7445068359376	1095.110717773438	-944.0513916015627	-247.9234924316407	749.7701416015626	-1137.327880859375	-224.3189544677735	668.7749023437501	-1128.111206054688	-177.5306701660157	669.8635864257814	-1107.39453125	-256.2700500488282	621.9859619140626	-1109.777709960938	-256.8729858398438	559.2368164062501	-1101.955688476563	-246.6753387451172	549.5333251953126	-981.9890136718752	-242.0603942871094	367.3426818847657	-1034.336791992188	-287.3629150390626	330.1951904296876	-1101.822265625	-253.2248992919922	321.9248657226563	-1072.287231445313	-273.1664733886719	243.7103576660157	-1046.578002929688	-366.4109802246094	117.4965896606446	-1069.927124023438	-327.8105773925782	128.5106506347657	-999.5364990234377	-416.7285461425782	94.92075347900392	-1016.249633789063	-216.0044250488282	46.58781433105469	-1017.3955078125	-210.0427856445313	46.82547760009766	-1068.319091796875	-256.4688110351563	34.17922592163087	-1112.668334960938	-269.6998596191407	816.645690917969	-782.492614746094	-241.2542724609376	756.4066772460939	-774.2215576171877	-207.6051025390626	754.1154785156251	-775.4626464843752	-277.3559265136719	680.5770874023439	-791.6538696289065	-279.7976074218751	542.6739501953126	-794.132263183594	-274.1418151855469	537.6207885742189	-915.1777343750002	-244.8173980712891	364.4560546875001	-813.4163208007815	-324.7211608886719	289.6250000000001	-775.4566650390627	-278.5671081542969	289.9592285156251	-784.8107910156252	-270.6120300292969	237.9028778076172	-812.3662109375002	-340.7393493652344	118.1064910888672	-782.0034179687502	-309.0346984863282	124.9752273559571	-859.9575195312502	-399.8607482910157	84.97352600097658	-843.7766113281252	-186.0686187744141	49.29492950439455	-835.0610351562502	-188.7198181152344	47.19921875000001	-788.1787109375002	-233.7267150878907	33.51097869873048	-744.4321899414064	nan	nan	nan	
3	0.01	-222.8859100341797	1774.708740234375	-998.517517089844	-378.1916503906251	1719.473266601563	-1057.826904296875	-368.3871459960938	1707.339721679688	-912.982849121094	-416.8282470703126	1530.070434570313	-981.2612915039065	-370.9610900878907	1251.791015625	-974.8764648437502	-272.9617614746094	1525.914306640625	-995.133728027344	-344.4141845703126	1553.295532226563	-1136.612670898438	-180.2989349365235	1492.40087890625	-1267.422119140625	-152.9783630371094	1527.511962890625	-1242.26513671875	-111.5069046020508	1500.925537109375	-1276.704956054688	-50.21764755249025	1504.716918945313	-1277.759887695313	-39.60520172119141	1430.936889648438	-1253.49267578125	245.6727142333985	1517.045654296875	-1255.024169921875	311.5831604003907	1534.33056640625	-1167.009521484375	-319.9518432617188	1545.818969726563	-846.6318969726565	-159.8523254394532	1506.878662109375	-730.8800048828126	-124.7452468872071	1521.580200195313	-761.6157836914064	-92.1558074951172	1502.220825195313	-713.9199829101564	-18.66245651245118	1500.76708984375	-704.6566162109376	-12.87578582763672	1423.7197265625	-725.3469848632814	256.6191711425782	1497.087036132813	-789.7739868164065	267.9830627441407	1511.700073242188	-721.4998168945314	337.7534179687501	1529.270629882813	-797.0000610351565	-190.26025390625	1073.766845703125	-1092.393432617188	-197.0134429931641	1086.826782226563	-838.4763183593752	-363.6659240722657	1123.295166015625	-972.5032348632815	-375.9443969726563	1093.884765625	-999.6597290039065	-378.9302368164063	1095.053955078125	-944.676452636719	-247.9461669921876	749.6981811523439	-1137.6923828125	-224.3488769531251	668.7403564453126	-1128.333740234375	-177.5296325683594	669.8386230468751	-1107.635131835938	-256.3202209472657	621.9677124023439	-1110.076904296875	-256.9447326660157	559.1430664062501	-1102.226806640625	-246.8843841552735	549.6180419921876	-982.1621093750002	-242.0847320556641	367.3750915527344	-1034.451904296875	-287.4050292968751	330.1342163085938	-1101.92431640625	-253.2637481689454	321.8542785644532	-1072.371826171875	-273.2359313964844	243.6871185302735	-1046.651733398438	-366.4128417968751	117.4608917236328	-1069.945190429688	-327.8596801757813	128.5106964111328	-999.5203247070315	-416.6848754882814	94.91624450683595	-1016.296630859375	-216.0056915283204	46.54586029052735	-1017.371154785156	-210.0571441650391	46.82791900634766	-1068.305419921875	-256.4406433105469	34.19181823730469	-1112.635620117188	-269.8948974609376	816.6946411132815	-782.909606933594	-241.0137023925782	755.9312744140626	-774.2481079101565	-207.7731475830079	754.2268676757814	-775.5632934570315	-277.4166259765626	680.6407470703126	-791.990661621094	-279.6816406250001	542.7735595703126	-794.4814453125002	-273.9782714843751	537.6007690429689	-915.466247558594	-244.7099609375001	364.4959106445313	-813.7104492187502	-324.5844116210938	289.7355957031251	-775.6173095703127	-278.5412902832032	290.0403442382813	-784.9543457031252	-270.5790100097657	237.9281005859376	-812.503845214844	-340.7272033691407	118.181884765625	-782.0462646484377	-309.0200805664063	125.0089416503907	-859.979919433594	-399.8055114746095	85.00618743896486	-843.7405395507815	-186.0328216552735	49.35556793212892	-835.0598144531252	-188.7047729492188	47.21731567382813	-788.1832275390627	-233.7230682373047	33.4984474182129	-744.4427490234376	nan	nan	nan	
4	0.015	-222.9474334716797	1774.595947265625	-998.9546508789065	-378.2817993164063	1719.540161132813	-1058.436645507813	-368.4979248046876	1707.30517578125	-913.5903930664065	-416.9634399414064	1530.124267578125	-981.8596191406252	-371.1053466796876	1251.762573242188	-975.6519165039065	-273.2201538085938	1525.88330078125	-995.8560791015627	-344.5346984863282	1553.331665039063	-1137.226806640625	-180.4233093261719	1492.378662109375	-1268.14111328125	-153.1909942626953	1527.468383789063	-1242.931640625	-111.7154998779297	1500.900512695313	-1277.356567382813	-50.44178771972658	1504.69775390625	-1278.491088867188	-39.71334838867188	1430.914794921875	-1254.212280273438	245.519027709961	1516.947875976563	-1255.749755859375	311.3918151855469	1534.237060546875	-1167.644775390625	-320.1768188476563	1545.812255859375	-847.260681152344	-159.9914855957032	1507.312377929688	-731.7298583984376	-124.8329620361328	1521.5908203125	-762.3242187500001	-92.31750488281251	1502.247802734375	-714.5612792968751	-18.7938404083252	1500.787109375	-705.3554687500001	-13.004056930542	1423.796020507813	-725.9791870117189	256.5396118164063	1497.062377929688	-790.450866699219	267.8121643066407	1511.705322265625	-721.9793090820314	337.6176757812501	1529.2451171875	-797.519470214844	-190.4477844238282	1073.725463867188	-1092.926025390625	-197.3152618408204	1086.845947265625	-839.040710449219	-363.8534545898438	1123.229370117188	-973.3081665039065	-376.1276855468751	1093.842529296875	-1000.468872070313	-379.1134643554688	1095.042114257813	-945.4162597656252	-247.8443756103516	749.6307983398439	-1138.102661132813	-224.3047332763672	668.6828002929689	-1128.636352539063	-177.5832824707032	669.7799682617189	-1107.922607421875	-256.3423461914063	621.9402465820314	-1110.421264648438	-257.0452880859376	559.0952148437501	-1102.536743164063	-247.0947723388672	549.6327514648439	-982.4279785156252	-242.1752166748047	367.3514404296876	-1034.577270507813	-287.3877258300782	330.0613403320313	-1102.090698242188	-253.2664184570313	321.8763122558594	-1072.476318359375	-273.2600708007813	243.6834411621094	-1046.616455078125	-366.4317016601563	117.3963928222657	-1069.956909179688	-327.8684692382813	128.4840545654297	-999.5842285156252	-416.6967163085939	94.89710998535158	-1016.29296875	-216.0055847167969	46.54615020751954	-1017.371032714844	-210.0579986572266	46.81629943847657	-1068.348999023438	-256.4259033203126	34.18326568603516	-1112.640991210938	-270.0662536621094	816.7310180664065	-783.3604736328127	-241.0925750732422	756.0128173828126	-774.641784667969	-207.9240112304688	754.3048706054689	-775.9863281250002	-277.4235229492188	680.6850585937501	-792.3125610351565	-279.5519409179688	542.8484497070314	-794.8918457031252	-273.9126892089844	537.6144409179689	-915.7913818359377	-244.6508789062501	364.4958190917969	-813.930603027344	-324.5633544921876	289.8095092773438	-775.791442871094	-278.4447326660157	290.0605468750001	-785.1670532226565	-270.4945983886719	237.9577331542969	-812.661315917969	-340.6461791992188	118.2273941040039	-782.1023559570315	-308.9657897949219	125.0013122558594	-860.0197753906252	-400.2134399414064	85.33749389648439	-843.930358886719	-186.0497283935547	49.27528381347658	-835.0847167968752	-188.6998901367188	47.23221588134766	-788.1818847656252	-233.734115600586	33.49989700317384	-744.4996948242189	nan	nan	nan	
